# File created by Blade
# Date/Time:  Thu Sep 25 17:43:48 2014
# Frame Rate: 120.000 fps
#------------------------------------------------------
:FULLY-SPECIFIED
:DEGREES
324
root -29.168345 31.529695 -5.163921 -350.613001 2.807884 1.300588
Spine -2.006150 11.195736 5.230609
Head -8.482610 36.516614 0.240582
LeftShoulder -12.474251 22.020137 7.062115
LeftArm 25.157173 30.711770 -69.252330
LeftForeArm 4.682886 0.000000 19.796530
LeftHand -18.754811 -0.000000 -14.296545
LeftHandThumb1 -26.253704 0.000000 33.147579
RightShoulder -16.170963 7.481997 -23.171281
RightArm -13.958386 -42.856981 93.651815
RightForeArm -14.863788 -0.000000 31.894572
RightHand -0.773946 -0.000000 16.820535
RightHandThumb1 -24.326973 -0.000000 -32.862282
LeftUpLeg -11.884468 -2.576404 13.268158
LeftLeg 12.150234 -0.000000 -0.000000
LeftFoot -19.339278 13.010202 326.337881
LeftToeBase 6.337395 -0.000000 -0.000000
RightUpLeg -6.631542 -27.320320 -13.397648
RightLeg 3.675361 -0.000000 -0.000000
RightFoot -4.401953 -8.390239 11.060596
RightToeBase 6.234514 -0.000000 -0.000000
325
root -28.816317 31.516445 -5.256098 -350.433742 3.153307 2.016967
Spine -1.997377 10.804496 4.046192
Head -8.845282 36.413697 0.882139
LeftShoulder -12.310052 21.922433 7.488444
LeftArm 25.709034 30.112916 -68.217255
LeftForeArm 4.497950 -0.000000 19.735215
LeftHand -18.889488 0.000000 -14.273950
LeftHandThumb1 -26.253704 0.000000 33.147579
RightShoulder -16.241036 7.575055 -22.698189
RightArm -13.314835 -42.385875 92.420185
RightForeArm -15.924438 0.000000 31.340697
RightHand -0.821818 -0.000000 16.183805
RightHandThumb1 -24.326973 -0.000000 -32.862282
LeftUpLeg -12.897290 -3.080507 11.981335
LeftLeg 13.355398 -0.000000 -0.000000
LeftFoot -19.972697 13.044538 327.101988
LeftToeBase 6.363882 -0.000000 -0.000000
RightUpLeg -7.090927 -27.938716 -14.586668
RightLeg 4.279076 -0.000000 -0.000000
RightFoot -3.930276 -8.544913 11.519626
RightToeBase 6.179755 -0.000000 -0.000000
326
root -28.442403 31.518149 -5.364678 -350.171060 3.532214 3.060472
Spine -2.028094 10.509724 2.475127
Head -9.125678 36.123017 1.629439
LeftShoulder -11.920079 22.001164 8.097504
LeftArm 26.558305 29.578539 -66.994080
LeftForeArm 4.323839 0.000000 19.601435
LeftHand -19.093361 -0.000000 -13.838912
LeftHandThumb1 -26.253704 0.000000 33.147579
RightShoulder -16.297494 7.639207 -22.278104
RightArm -12.802977 -41.370170 91.373858
RightForeArm -17.064240 -0.000000 30.705628
RightHand -0.976171 -0.000000 15.295352
RightHandThumb1 -24.326973 -0.000000 -32.862282
LeftUpLeg -14.093774 -3.854324 10.348926
LeftLeg 14.691522 -0.000000 -0.000000
LeftFoot -20.447877 13.458185 327.707482
LeftToeBase 5.935616 -0.000000 -0.000000
RightUpLeg -7.703053 -28.859468 -16.078180
RightLeg 5.042766 -0.000000 -0.000000
RightFoot -3.339651 -8.565735 12.052842
RightToeBase 6.008873 -0.000000 -0.000000
327
root -28.113514 31.523871 -5.446812 -350.064976 4.000267 3.922998
Spine -1.938351 10.157864 1.047059
Head -9.215286 35.733827 2.585489
LeftShoulder -11.466158 22.225462 8.872830
LeftArm 27.465956 29.079516 -65.665828
LeftForeArm 4.354071 0.000000 19.545628
LeftHand -19.201668 0.000000 -13.236957
LeftHandThumb1 -26.253704 0.000000 33.147579
RightShoulder -16.254040 7.666666 -21.894388
RightArm -12.401285 -40.183607 90.462558
RightForeArm -18.276125 -0.000000 30.106335
RightHand -1.912646 0.000000 13.360018
RightHandThumb1 -24.326973 -0.000000 -32.862282
LeftUpLeg -15.106104 -4.220065 8.933183
LeftLeg 16.067903 -0.000000 -0.000000
LeftFoot -20.590339 13.416331 328.417461
LeftToeBase 5.912510 -0.000000 -0.000000
RightUpLeg -8.035223 -29.608871 -17.400995
RightLeg 5.737649 -0.000000 -0.000000
RightFoot -2.773086 -8.944309 12.192884
RightToeBase 5.997968 -0.000000 -0.000000
328
root -27.801979 31.535098 -5.511583 -350.049412 4.409911 4.743423
Spine -1.776608 9.899056 -0.329211
Head -9.166286 35.287422 3.478219
LeftShoulder -11.019363 22.334276 9.762254
LeftArm 28.284871 28.775081 -64.316420
LeftForeArm 4.342240 -0.000000 19.504198
LeftHand -19.696433 0.000000 -12.178726
LeftHandThumb1 -26.253704 0.000000 33.147579
RightShoulder -16.146135 7.735861 -21.657408
RightArm -12.158634 -38.783494 89.803329
RightForeArm -19.214504 -0.000000 29.332516
RightHand -2.092654 -0.000000 12.556629
RightHandThumb1 -24.326973 -0.000000 -32.862282
LeftUpLeg -15.828446 -4.265827 7.592903
LeftLeg 17.233731 -0.000000 -0.000000
LeftFoot -20.453882 12.809060 328.945283
LeftToeBase 6.049589 -0.000000 -0.000000
RightUpLeg -8.247801 -30.370299 -18.697087
RightLeg 6.374740 -0.000000 -0.000000
RightFoot -1.903586 -9.407422 13.275081
RightToeBase 4.495573 -0.000000 -0.000000
329
root -27.500217 31.550980 -5.579852 -350.013211 4.759116 5.492173
Spine -1.634180 9.732656 -1.586793
Head -9.037176 34.850561 4.304114
LeftShoulder -10.677900 22.465797 10.616593
LeftArm 29.241721 28.566685 -62.787675
LeftForeArm 4.282582 -0.000000 19.367610
LeftHand -19.702556 -0.000000 -11.194016
LeftHandThumb1 -26.253704 0.000000 33.147579
RightShoulder -16.008946 7.786858 -21.549352
RightArm -12.012173 -37.415443 89.219869
RightForeArm -19.937941 -0.000000 28.617772
RightHand -2.358499 0.000000 11.601623
RightHandThumb1 -24.326973 -0.000000 -32.862282
LeftUpLeg -16.428500 -4.125239 6.336675
LeftLeg 18.162156 -0.000000 -0.000000
LeftFoot -20.138505 12.109397 329.500689
LeftToeBase 5.954049 -0.000000 -0.000000
RightUpLeg -8.599822 -31.121831 -19.810766
RightLeg 7.126853 -0.000000 -0.000000
RightFoot -1.172646 -10.045560 13.742387
RightToeBase 3.786939 -0.000000 -0.000000
